Coordinates
version=1
nRows=38
nColumns=12
inDegrees=yes

Units are S.I. units (second, meters, Newtons, ...)
Angles are in degrees

endheader
time	SC_y	SC_z	SC_x	AC_y	AC_z	AC_x	GH_y	GH_z	GH_yy	EL_x	PS_y
       0.0              -47.37          11.15          68.09          30.45         -4.149          7.705          24.59          26.47          146.0          9.717          111.7
   0.04539              -47.37          11.15          68.09          30.46         -4.149          7.707          24.61          26.47          146.0          9.733          111.7
   0.09078              -47.37          11.15          68.09          30.46         -4.149          7.708          24.63          26.47          145.9           9.75          111.7
    0.1362              -47.37          11.15          68.09          30.47         -4.148           7.71          24.65          26.46          145.9          9.768          111.7
    0.1816              -47.37          11.15          68.09          30.47         -4.148          7.712          24.67          26.46          145.8          9.788          111.7
    0.2269              -47.37          11.14          68.09          30.48         -4.148          7.714          24.69          26.46          145.8          9.809          111.7
    0.2723              -47.37          11.14           68.1          30.48         -4.148          7.717          24.72          26.46          145.8          9.831          111.7
    0.3177              -47.37          11.14           68.1          30.49         -4.148          7.719          24.74          26.46          145.7          9.854          111.7
    0.3631              -47.38          11.14           68.1          30.49         -4.148          7.722          24.77          26.46          145.7          9.879          111.6
    0.4085              -47.38          11.14           68.1           30.5         -4.148          7.724           24.8          26.45          145.6          9.907          111.6
    0.4539              -47.38          11.13           68.1          30.51         -4.147          7.727          24.83          26.45          145.5          9.936          111.6
    0.4993              -47.38          11.13           68.1          30.51         -4.147          7.731          24.87          26.45          145.5          9.967          111.6
    0.5447              -47.38          11.13          68.11          30.52         -4.147          7.734          24.91          26.45          145.4           10.0          111.6
    0.5901              -47.38          11.12          68.11          30.53         -4.147          7.738          24.95          26.44          145.3          10.04          111.6
    0.6354              -47.38          11.12          68.11          30.54         -4.147          7.742          24.99          26.44          145.2          10.08          111.6
    0.6808              -47.38          11.12          68.11          30.55         -4.146          7.746          25.04          26.44          145.2          10.12          111.6
    0.7262              -47.38          11.11          68.12          30.56         -4.146          7.751          25.09          26.43          145.1          10.17          111.5
    0.7716              -47.38          11.11          68.12          30.58         -4.146          7.756          25.14          26.43          145.0          10.22          111.5
     0.817              -47.38           11.1          68.13          30.59         -4.145          7.762          25.21          26.42          144.8          10.27          111.5
    0.8624              -47.39           11.1          68.13           30.6         -4.145          7.768          25.27          26.42          144.7          10.33          111.5
    0.9078              -47.39          11.09          68.13          30.62         -4.145          7.775          25.35          26.42          144.6           10.4          111.5
    0.9532              -47.39          11.08          68.14          30.64         -4.144          7.782          25.43          26.41          144.4          10.47          111.4
    0.9986              -47.39          11.08          68.14          30.66         -4.144          7.791          25.52           26.4          144.3          10.55          111.4
     1.044              -47.39          11.07          68.15          30.68         -4.143            7.8          25.62           26.4          144.1          10.64          111.4
     1.089               -47.4          11.06          68.16          30.71         -4.142           7.81          25.73          26.39          143.9          10.74          111.3
     1.135               -47.4          11.05          68.16          30.73         -4.142          7.822          25.85          26.38          143.6          10.85          111.3
      1.18               -47.4          11.04          68.17          30.76         -4.141          7.834          25.99          26.37          143.4          10.98          111.2
     1.225               -47.4          11.03          68.18           30.8          -4.14          7.849          26.14          26.36          143.1          11.12          111.2
     1.271              -47.41          11.01          68.19          30.84         -4.139          7.865          26.32          26.35          142.8          11.28          111.1
     1.316              -47.41          10.99          68.21          30.88         -4.138          7.883          26.52          26.33          142.4          11.46          111.1
     1.362              -47.42          10.98          68.22          30.93         -4.137          7.904          26.74          26.32          142.0          11.66          111.0
     1.407              -47.42          10.95          68.24          30.99         -4.135          7.928           27.0           26.3          141.5           11.9          110.9
     1.452              -47.43          10.93          68.25          31.06         -4.133          7.956           27.3          26.28          140.9          12.17          110.8
     1.498              -47.44           10.9          68.27          31.14         -4.131          7.989          27.65          26.25          140.2          12.49          110.7
     1.543              -47.45          10.87           68.3          31.23         -4.129          8.027          28.06          26.23          139.5          12.85          110.5
     1.589              -47.46          10.83          68.33          31.34         -4.126          8.071          28.54          26.19          138.6          13.29          110.4
     1.634              -47.47          10.78          68.36          31.46         -4.123          8.124          29.12          26.15          137.5          13.81          110.2
     1.679              -47.48          10.72          68.41          31.62         -4.119          8.188           29.8           26.1          136.2          14.43          109.9
